<svg id="Layer_1" data-name="Layer 1" xmlns="http://www.w3.org/2000/svg" viewBox="0 0 1635.69 996.76"><defs><style>.cls-1,.cls-5,.cls-8{fill:none;}.cls-1,.cls-6,.cls-7,.cls-8{stroke:#000;stroke-miterlimit:10;}.cls-2,.cls-3,.cls-4{fill:#b6ffe5;}.cls-2{opacity:0.4;}.cls-3{opacity:0.3;}.cls-4{opacity:0.65;}.cls-6,.cls-7{fill:#fff;}.cls-6,.cls-8{stroke-width:0.75px;}</style></defs><title>plant icon_color accents</title><line class="cls-1" y1="947.74" x2="1401.2" y2="947.74"/><g id="Layer_3" data-name="Layer 3"><circle class="cls-2" cx="399.7" cy="312.5" r="312.5"/><circle class="cls-3" cx="1221.7" cy="484.5" r="137.5"/><circle class="cls-4" cx="1159.2" cy="771" r="75"/></g><path class="cls-1" d="M744.31,613.22c-5.66,1.53-5.9,5.42-9.8,9.45a31.87,31.87,0,0,1-15.37,8.3c-7.09,1.71-13.85.26-20.87,1-15.23,1.63-24.83,18-35.58,27.22-12.87,11-28.49,15.34-41.58,25.77a79,79,0,0,0-27,40.49c1.68-6.17-20.91-24.33-25.27-27.75-10.34-8.09-23-11.28-33.42-18.5-9.5-6.59-18.73-17.78-26.78-26.17-9.33-9.72-18-20.41-23.34-32.91-20-47.11,4-112.15,38.35-146.34,18-17.9,41.75-31.51,67.12-31.55s51.53,16.28,57.43,40.95c1.84,7.68,1.75,15.83,4.61,23.19s10.15,14,17.87,12.38c-5.48-24.12,17.39-48.6,42.11-49.56s47.43,17.11,57.57,39.67c15,33.41,4.19,76.46-24.83,98.8a932.45,932.45,0,0,1,112.88,138c10.91,16.31,21.42,33.2,27.34,51.91a143.8,143.8,0,0,1,5.7,30.73c.41,4.62,1.48,9.16,1.84,13.79s-.18,9.46-.58,14.17c-.14,1.65-.55,3.66-2.13,4.15-1.19.38-2.43-.35-3.37-1.16-5.25-4.47-5.18-9.28-6.15-15.51-.65-4.15-1.38-8.49-2.31-12.59-3.59-15.81-7.92-31.28-16.76-45-12-18.53-23.11-36.52-34-55.73-5.6-9.92-10.67-20.16-16.71-29.84s-14.79-17.78-19.91-28A679.2,679.2,0,0,0,744.31,613.22Z" transform="translate(-180.8 -61)"/><path class="cls-5" d="M674,615.48a29.93,29.93,0,0,0,6.66,8.43c2.81,2.25,6.57,3.59,10.07,2.74,5.56-4.41,5.13-12.83,4.17-19.86l-1.95-14.38c-1.1-8.07-24.5-38.58-32.15-23.11C654.48,582.05,667.91,605.22,674,615.48Z" transform="translate(-180.8 -61)"/><path class="cls-1" d="M508.31,588.61C503.66,592.13,499,596,496.16,601s-3.65,11.73-.53,16.66a182.61,182.61,0,0,1,83.8-50.46c11.73-3.24,25.63-5.59,34.22-15-8.24-2.54-12.94-4.82-21.76-2.89a200,200,0,0,0-30.29,9.51A225.53,225.53,0,0,0,508.31,588.61Z" transform="translate(-180.8 -61)"/><path class="cls-1" d="M680.61,575.41A133.92,133.92,0,0,1,693,610.58c.65,3.21,1.18,6.55.43,9.75s-3.05,6.22-6.26,6.89c-2.78.57-5.68-.73-7.72-2.69a26.57,26.57,0,0,1-4.72-7c-4.5-8.59-9-17.26-11.7-26.58-1.48-5.19-6.1-20.95-1.8-25.81C668.18,557.27,677.86,570.12,680.61,575.41Z" transform="translate(-180.8 -61)"/><path class="cls-1" d="M533.38,511.94a40.19,40.19,0,0,1,10.94-1.32l23.88-.68c4.08-.12,8.92.15,11.08,3.62,2,3.23.3,7.75-2.76,10s-7,2.78-10.85,3A95.18,95.18,0,0,1,537.48,524C529.06,521.94,519.68,516.23,533.38,511.94Z" transform="translate(-180.8 -61)"/><path class="cls-1" d="M890.5,603.22c3.12,23.18,5.34,46.49,5.34,69.65,2.23,26,4.45,52.07,7.11,78.06,1.68,16.38,3.54,32.81,3.08,49.27-.44,15.79-3,31.37-5.91,46.87-.14.75-1.92,11.83-.4,11.69a12.11,12.11,0,0,0,7.69-3.82c2.83-3.07,3.47-7.53,3.77-11.56,7.6-102.12-2.16-202.54-18.95-303.11l-13-77.7L853.6,308.93a62.18,62.18,0,0,1,8.77,47.82c17.08-12.1,29.51-30.18,35.82-50.05,6.59-20.78,3-39.86,2.53-60.93,3.35.62,6.83,1.24,10.13.36s6.34-3.69,6.3-7.1c0-3.17-2.73-5.81-5.74-6.82s-6.26-.76-9.42-.5c1.38,5.66-3.13,11.27-8.37,13.82s-11.22,3.05-16.76,4.85a38.09,38.09,0,0,0-21.25,17.77c-2.43,4.35-3,6-6.66,9.59-2,2-12.42,7.35-12.71,9.93,1.53-12.92,2.5-27.7-6.39-37.2-8.25-8.81-21.75-9.53-33.82-9.66-27.38-.29-56-.3-80.41,12.13-28.07,14.31-46.84,45.24-46.55,76.75,24-28.63,64.42-42.37,100.87-34.3l-71.52,21.68c-11.92,3.62-24.23,7.44-33.66,15.58a45.79,45.79,0,0,0-13.85,46c21.56-39.86,70.56-62.77,115-53.78-43.5,14.05-90,30.16-116.78,67.16l2.15,33.33c16.38-14,26.65-33.8,40.87-50s35.79-29.5,56.55-23.64l-55.43,42.29c-5.86,4.47-11.83,9.05-15.92,15.18s-6.05,14.18-3.18,21c6.69,15.79,33,14.81,39.7,30.58a131.91,131.91,0,0,1,15-50.16A105.12,105.12,0,0,1,744,389c1.92-2.1,15-16.6,17.73-15.42a12.81,12.81,0,0,1,7.35,9.06c1.88,9.32-7.35,22.21-13.18,28.71-4.59,5.12-19,18.78-26.93,17a54.15,54.15,0,0,0,66.26-49.5c.51-8.47-1-17.09.76-25.39s8.14-16.66,16.63-16.58a112.56,112.56,0,0,1-17.81,77c6.6-18.95,34.55-20.59,45.68-37.29,6.36-9.55,5.83-21.95,5.06-33.41l-2.88-42.88L867.85,459l12.61,79.36C883.85,559.72,887.57,581.41,890.5,603.22Z" transform="translate(-180.8 -61)"/><path class="cls-1" d="M877.35,266.92c5.13-1.94,11.52-1.44,15.36,2.49s3.62,11.5-1.14,14.22c-3.71,2.13-8.37.83-12.43-.53-4.79-1.59-11-2.72-15-5.59C866.82,273.08,872.45,268.77,877.35,266.92Z" transform="translate(-180.8 -61)"/><path class="cls-1" d="M772.48,266.14c2.29.86,5,2.43,4.77,4.87A4.06,4.06,0,0,1,774,274.3a12.37,12.37,0,0,1-4.88-.15A252.4,252.4,0,0,0,737.63,271c-6.11-.23-23.72,3.21-27-2.51C724.83,256.17,756.35,260.14,772.48,266.14Z" transform="translate(-180.8 -61)"/><path class="cls-1" d="M999.8,400.42c4.66,4.84,9.64,9.21,13.56,11.17L1023,421c4.08,4,6.68,8.68,10.45,12.73,2.3,2.48,15.8,10.78,15.8,13.78-12.83-26.75-15.12-62.09-7.37-90.58,1.19-4.35,3.62-9.45,8.13-9.63,2.71-.11,5.19,1.8,6.5,4.18a19.65,19.65,0,0,1,1.93,7.85c1.41,15-1.22,28.16-3.86,42.63-2.55,13.94-.43,30-.36,44.21,0-5.11,50.8,14,54.8,16.44a118.31,118.31,0,0,1,22.64,17.91c6.62,6.65,5.86,15.55,12.47,21.93,13.53-26.72,39.55-44.46,64.5-61-3.77,2.49-36.8-40.85-39.57-44.25q-14.22-17.4-28.2-35c-7.14-8.94-23.86-25.16-2.74-27.87,0-3.93,2.39-8.06,6.57-8.78s8.29,2.14,11.7,4.86c16,12.72,34.2,21.23,47.59,37.08a103.55,103.55,0,0,1,15.92,25.5c2.42,5.57,10,21.7,7.34,27.7,17.33-38.18,13.74-84.88-8.4-120.47C1207,281,1187.41,259.91,1165.52,253a291.72,291.72,0,0,0-81.82-13.44c-8.15-.16-16.73.13-23.74,4.29-10.82,6.4-14.79,19.85-17.85,32-13.3,1.69-15.13-12.37-19.87-21-5.69-10.31-13.1-21.16-23.06-27.81-14.49-9.65-35.86-13.67-50.54-1.94-22.23,17.76-8,40.29.6,60.92A129,129,0,0,1,959,321.64c1.3,10.8,7,20.84,11.78,30.83,5.19,10.88,10.2,23,16.8,33A115,115,0,0,0,999.8,400.42Z" transform="translate(-180.8 -61)"/><path class="cls-1" d="M1001.09,274.52c1.53.81,3.14,1.9,3.51,3.59.67,3.06-3,5.18-6,6.06a89.06,89.06,0,0,1-22,3.55c-3.52.12-7.16,0-10.37-1.44-13.35-6.07.94-13.24,8.26-14.95A38.51,38.51,0,0,1,1001.09,274.52Z" transform="translate(-180.8 -61)"/><path class="cls-1" d="M981.08,371.32c2.71,6.51,8.11,12.3,15,13.66-1.89-13.19,4.75-26,12-37.19,3.63-5.6,16.54-19.61,12.87-26.59s-14.68-3.2-19.44-.42C985,330.45,973.29,352.61,981.08,371.32Z" transform="translate(-180.8 -61)"/><path class="cls-1" d="M1139.35,376.21c4,3.52,7.08,7.93,10.13,12.3,3.63,5.22,7.42,11,7.09,17.3.12-2.29-25.48-21.18-28.6-24.57-2.5-2.72-11.46-9.9-5.88-12.72C1126.3,366.4,1136.51,373.71,1139.35,376.21Z" transform="translate(-180.8 -61)"/><path class="cls-1" d="M1213.14,312.85c3.1,1.32,6.32,2.79,8.36,5.48s2.44,6.93,0,9.2c-2.64,2.41-6.78,1.49-10.19.43l-54-16.78c-4.83-1.5-40.27-9.05-33.49-17.75,5.56-7.13,33.53,1.9,40,3.38A297.19,297.19,0,0,1,1213.14,312.85Z" transform="translate(-180.8 -61)"/><path class="cls-1" d="M1005.18,405.4c-24.64,80.72-39.92,164-55.16,247-4.36,17.42-6.55,35.69-9.8,53.36q-5,27-9.89,53.9c-2,10.75-3.67,21.21-4.88,32.09-1.28,11.58-3,23.21-3.61,34.85" transform="translate(-180.8 -61)"/><path class="cls-1" d="M1006.17,726.42l83.29-83.94c-10-3.9-15.67-16.23-12.21-26.35s15.51-16.37,25.77-13.37l22.29,15.37-1-17.23,3.3,1.28a621.21,621.21,0,0,1,118.74,104.53c7.16,8.15,14.28,16.79,17.46,27.16s1.51,23-6.76,30c7.51-6.36-4.76-28.92-8.52-34.1a155,155,0,0,0-65.57-51.6c-13-5.41-26.27-7-39.3-12.27-17.69-7.08-39.33-24.63-57.37-10.81C1066,670.52,1048.13,691.18,1031,710a796.87,796.87,0,0,0-93.53,125.61,73.3,73.3,0,0,1-10.58,13c-4.33,4.43-7.86,8.94-13.44,12-1.16.64-2.64,1.21-3.76.5a2.73,2.73,0,0,1-1-2.76,9.18,9.18,0,0,1,1.21-2.85c2.78-5,3.87-10.38,5.75-15.69a75.16,75.16,0,0,1,6.67-13.67c5.15-8.51,11.34-16.3,17.08-24.42C958.82,774.23,982.56,750.21,1006.17,726.42Z" transform="translate(-180.8 -61)"/><path class="cls-6" d="M945.32,793.47c1.57-1.47,2.16-3.19,2.9-5.13a66.84,66.84,0,0,1,3.14-6.56c2.11-4.18,4.35-8.28,6.43-12.48,3.79-7.69,7.12-15.62,12.28-22.53,8.15-10.92,20.94-19.32,34.55-18.62,12.42.65,23,8.73,29.62,18.8-6.76-19.7,21.87-15.53,25.09-31.18,2-9.89-5.06-19.84-14-24.45s-19.45-5.1-29.55-5.5c-6-.23-12.18-.41-17.52,2.2s-9.36,9-7.22,14.56c-7-7.63-22.93-6.86-27.78,3-5.41,11,12.53,21.38,10.7,25.94-5.09,12.72-11.23,25-17.51,37.14-2,3.79-3.54,7.8-5.53,11.53a75.16,75.16,0,0,0-5.13,12.13l.76-.5" transform="translate(-180.8 -61)"/><path class="cls-1" d="M913.75,764.87c1.86-7.34,2.33-15.22,3.32-22.76,1-7.89,2-15.79,3.13-23.67,1.88-13.52,4.81-26.77,7.73-40.12q11.49-52.61,26.1-104.45c2.26-8,4.31-15.8,6-24q2.76-13.23,5.7-26.43,5.81-26.14,12.25-52.13c5.66-22.83,11.69-45.56,17.72-68.3.39-1.46.92-3.1,2.29-3.75,2.48-1.18,5.62,5.47,5.93,7.29a7.09,7.09,0,0,1-.69,4.39" transform="translate(-180.8 -61)"/><path class="cls-7" d="M900.32,845.87c-.9-23.16-.82-46.42-3.2-69.48-.47-4.51-.9-9-1.32-13.54q-1.23-13.54-2.16-27.11-1.23-17.88-1.9-35.78c-.41-11,.12-21.88-.57-32.81a20,20,0,0,1,21,27.09c4.21-1.39,5.5-6.74,5.29-11.17s-1.14-9.2,1.07-13.05c3.1-5.41,10.51-6,16.75-6.1a30.27,30.27,0,0,0,10.14-1.5c2.74-1,4.46-3.16,6.78-4.82a21,21,0,0,0,9.15-16c.49-7.64-2.83-15.16-7.7-21.07S942.42,610.16,936,606c-8-5.08-16.78-9.87-26.21-9.42s-19.08,8.25-18.13,17.64a27.42,27.42,0,0,0-18.89-22.75c-7-2.12-14.7-1.25-21.67,1.1-11.38,3.83-22.89,11.39-31.61,19.64a25.45,25.45,0,0,0-6.08,7.75c-2,4.45-1.74,9.67-.36,14.36a37.51,37.51,0,0,0,10.36,16.41c5.44,5.17,11,7.72,18.07,10A107,107,0,0,0,878.7,666c3.06-.12,6.39-.16,7,3.12.71,4.06.15,8.88.26,13,.47,18.16,1.23,36.32,2.08,54.47q.63,13.62,1.32,27.25c.48,9.75,1.58,19.31,1.79,29,.28,12.39.89,24.81.92,37.17" transform="translate(-180.8 -61)"/><path class="cls-8" d="M863.07,819.35c-.88-4.39-1.64-9.3-5.14-12.1-2.63-2.09-6.2-2.47-9.56-2.55a81.41,81.41,0,0,0-23.8,2.95,14.83,14.83,0,0,0-4.37,1.8,5.56,5.56,0,0,0-2.54,3.83c-.29,2.64,1.89,4.88,4.11,6.34s4.77,2.73,6,5.08a8.19,8.19,0,0,1,.46,5.69,23.86,23.86,0,0,1-2.25,5.37,94.41,94.41,0,0,1,24.24-20.58c2.31-1.36,5.13-2.65,7.56-1.53,2.75,1.27,3.4,4.8,3.86,7.79a77.89,77.89,0,0,0,10.8,29.07c1.15,2.3,2.28,4.6,3.47,6.92a3.32,3.32,0,0,0,.9,1.22,2,2,0,0,0,2.78-.87c1.41-2.78-3.73-7.83-5.15-10.07a83.66,83.66,0,0,1-8.53-17.79A82,82,0,0,1,863.07,819.35Z" transform="translate(-180.8 -61)"/><path class="cls-7" d="M830.31,1046.3l-33-162.23c-8.39-7.15-13.89-18.67-11.18-29.35A1916.52,1916.52,0,0,0,1021,850.25c2.19,10.48-2.21,20.61-9.12,28.79h-.72L989,1047c-39.73,9.76-82.87,11.43-123.74,9.58C852.44,1056,840.33,1054.23,830.31,1046.3Z" transform="translate(-180.8 -61)"/><path class="cls-1" d="M1549,1021c38.49-25.61,61.16-79.41,54.76-130l-22.29,118.13c7.14-19.31,20.33-35.6,36.58-45.19-8.08,1.81-16.65,3.91-22.52,10.52s-7.21,19.38-.5,24.84c7,5.72,16.74,0,23-6.85,20.21-22,29.56-56.41,23.86-87.73l-9,89.68c.24-6.11.51-12.37,2.61-18s6.47-10.53,11.78-11c6.39-.59,11.75,5,16.7,9.69,24.75,23.39,60.27,30.77,90.59,18.81s54.4-42.82,61.42-78.73" transform="translate(-180.8 -61)"/></svg>